<svg id="Search_project_icon" data-name="Search project icon" xmlns="http://www.w3.org/2000/svg" width="50" height="50" viewBox="0 0 50 50">
  <circle id="Ellipse_18" data-name="Ellipse 18" cx="25" cy="25" r="25" fill="#307ea1"/>
  <g id="people-24px" transform="translate(11.535 9.521)">
    <path id="Path_42" data-name="Path 42" d="M0,0H31.447V31.447H0Z" fill="none"/>
  </g>
  <g id="Ellipse_19" data-name="Ellipse 19" transform="translate(13 13)" fill="none" stroke="#fff" stroke-width="2">
    <circle cx="12.5" cy="12.5" r="12.5" stroke="none"/>
    <circle cx="12.5" cy="12.5" r="11.5" fill="none"/>
  </g>
  <line id="Line_50" data-name="Line 50" x2="8.47" y2="8.62" transform="translate(34.251 34.867)" fill="none" stroke="#fff" stroke-width="2"/>
  <g id="directions_run-24px" transform="translate(13 15.717)">
    <path id="Path_59" data-name="Path 59" d="M0,0H22.251V22.251H0Z" fill="none"/>
    <path id="Path_60" data-name="Path 60" d="M12.718,5.188a1.854,1.854,0,1,0-1.854-1.854A1.86,1.86,0,0,0,12.718,5.188ZM9.38,18.076,10.307,14l1.947,1.854v5.563h1.854V14.46l-1.947-1.854.556-2.781a6.789,6.789,0,0,0,5.1,2.318V10.288A4.561,4.561,0,0,1,13.83,8.063L12.9,6.579a1.912,1.912,0,0,0-1.576-.927c-.278,0-.464.093-.742.093L5.764,7.784v4.357H7.618V8.99l1.669-.649L7.8,15.85l-4.543-.927L2.89,16.778Z" transform="translate(-0.211 -0.108)" fill="#fff"/>
  </g>
</svg>
