<svg id="Search_guest_icon" data-name="Search  guest icon" xmlns="http://www.w3.org/2000/svg" width="50" height="50" viewBox="0 0 50 50">
  <circle id="Ellipse_14" data-name="Ellipse 14" cx="25" cy="25" r="25" fill="#307ea1"/>
  <g id="people-24px" transform="translate(11.535 9.521)">
    <path id="Path_42" data-name="Path 42" d="M0,0H31.447V31.447H0Z" fill="none"/>
  </g>
  <g id="Ellipse_15" data-name="Ellipse 15" transform="translate(13 13)" fill="none" stroke="#fff" stroke-width="2">
    <circle cx="12.5" cy="12.5" r="12.5" stroke="none"/>
    <circle cx="12.5" cy="12.5" r="11.5" fill="none"/>
  </g>
  <line id="Line_48" data-name="Line 48" x2="8.47" y2="8.62" transform="translate(34.251 34.867)" fill="none" stroke="#fff" stroke-width="2"/>
  <g id="how_to_reg-24px" transform="translate(14.533 19.929)">
    <path id="Path_56" data-name="Path 56" d="M0,0H16.845V13.537H0Z" transform="translate(0 0.392)" fill="none" fill-rule="evenodd"/>
    <g id="Group_64" data-name="Group 64" transform="translate(2.106 0)">
      <path id="Path_57" data-name="Path 57" d="M8.1,15.06l2.552-2.5a7.947,7.947,0,0,0-.851-.051c-2.272,0-6.806,1.14-6.806,3.4v1.7l5.1,3.18,6.3.527Zm1.7-4.254A3.4,3.4,0,1,0,6.4,7.4a3.4,3.4,0,0,0,3.4,3.4" transform="translate(-3 -4)" fill="#fff" fill-rule="evenodd"/>
      <path id="Path_58" data-name="Path 58" d="M14.952,19.306,12,16.328l1.191-1.2,1.761,1.77,4.364-4.4,1.191,1.2Z" transform="translate(-4.343 -5.269)" fill="#fff" fill-rule="evenodd"/>
    </g>
  </g>
</svg>
