<svg xmlns="http://www.w3.org/2000/svg" width="50" height="50" viewBox="0 0 50 50">
  <g id="Left_corner_icon" data-name="Left corner icon" transform="translate(-718 -614.818)">
    <circle id="Ellipse_11" data-name="Ellipse 11" cx="25" cy="25" r="25" transform="translate(718 614.818)" fill="#307ea1"/>
    <g id="people-24px" transform="translate(729.384 624.181)">
      <path id="Path_42" data-name="Path 42" d="M0,0H31.57V31.57H0Z" fill="none"/>
      <g id="person_add-24px" transform="translate(2.525 10.919)">
        <path id="Path_46" data-name="Path 46" d="M0,0H21.454V18.746H0Z" fill="none"/>
        <path id="Path_47" data-name="Path 47" d="M17.736,11.585A3.793,3.793,0,1,0,14,7.793,3.765,3.765,0,0,0,17.736,11.585Zm0,1.9c-2.5,0-7.476,1.271-7.476,3.793v.975L17.736,19.7l7.257-3.279C24.993,13.9,20.232,13.481,17.736,13.481Z" transform="translate(-4.206 -2.212)" fill="#fff"/>
      </g>
    </g>
    <g id="Ellipse_12" data-name="Ellipse 12" transform="translate(731 627.818)" fill="none" stroke="#fff" stroke-width="2">
      <circle cx="12.5" cy="12.5" r="12.5" stroke="none"/>
      <circle cx="12.5" cy="12.5" r="11.5" fill="none"/>
    </g>
    <line id="Line_39" data-name="Line 39" x2="8.503" y2="8.654" transform="translate(752.189 649.626)" fill="none" stroke="#fff" stroke-width="2"/>
  </g>
</svg>
