<svg id="Lager_1" data-name="Lager 1" xmlns="http://www.w3.org/2000/svg" viewBox="0 0 592.71 268.54"><title>logo</title><path d="M438.69,228.81s36.09-86.06,38.87-90.69,21.92-37.18,77.45-40,44.88,2.75,44.88,2.75L580.61,137H540.2s-9.25,0-11.1,7.4,6.47,4.63,6.47,4.63l38.1-.12L559.79,184.2l-41.8,1s-8.33,1.85-11.1,9.26-13,34.24-13,34.24l-55.24.16Z" transform="translate(-8 -7)" fill="#008357"/><path d="M316.67,235.69c-48.58,0-74.26-29.6-58.63-67.51,15.8-38.31,65.88-67.9,115.14-67.9,49,0,74.93,29.59,59.13,67.9s-65.94,67.51-115.64,67.51Zm13.17-26.81,34-73s7-11.88-3-13c-9-1-12,11-12,11l-29,64s-10.45,15.94-1,17c9,1,11-6,11-6Z" transform="translate(-8 -7)" fill="#008357"/><path d="M8.78,230.34l185.3-.4S250.63,78.57,348.11,7c0,0-199.9,70.33-339.33,223.34Z" transform="translate(-8 -7)" fill="#ed1b2e"/><polygon points="2.78 248.94 0 248.94 0 268.28 2.78 268.28 2.78 248.94 2.78 248.94" fill="#231f20"/><polygon points="24.96 248.94 22.35 248.94 22.35 263.92 9.25 248.94 7.04 248.94 7.04 268.28 9.64 268.28 9.64 253.39 22.58 268.28 24.96 268.28 24.96 248.94 24.96 248.94" fill="#231f20"/><polygon points="43.73 248.94 27.56 248.94 27.56 251.44 34.26 251.44 34.26 268.28 37.03 268.28 37.03 251.44 43.73 251.44 43.73 248.94 43.73 248.94" fill="#231f20"/><polygon points="57.3 248.94 46.33 248.94 46.33 268.28 57.56 268.28 57.56 265.79 49.11 265.79 49.11 259.77 57.02 259.77 57.02 257.28 49.11 257.28 49.11 251.44 57.3 251.44 57.3 248.94 57.3 248.94" fill="#231f20"/><path d="M68.57,255.94v19.34h2.78v-8.39h1.16c1.42,0,2.58.45,5.14,4.42l2.55,4h3.32c-1.33-1.84-1.82-2.49-2.64-3.83-1.47-2.41-2.55-4.19-4.31-5.36a4.83,4.83,0,0,0,3.23-4.73c0-3.35-2.44-5.42-6.35-5.42Zm2.78,2.38h1.79c2.69,0,3.77,1.11,3.8,2.92,0,1.62-.83,3.15-3.8,3.15H71.35v-6.07Z" transform="translate(-8 -7)" fill="#231f20" fill-rule="evenodd"/><polygon points="95.53 248.94 92.92 248.94 92.92 263.92 79.82 248.94 77.61 248.94 77.61 268.28 80.22 268.28 80.22 253.39 93.15 268.28 95.53 268.28 95.53 248.94 95.53 248.94" fill="#231f20"/><path d="M115.92,255.82h-2l-8.31,19.46h2.84l2.43-5.7h8.23l2.58,5.7h2.84l-8.65-19.46Zm-1,4.26,3.12,7h-6l2.9-7Z" transform="translate(-8 -7)" fill="#231f20" fill-rule="evenodd"/><polygon points="130.38 248.94 114.21 248.94 114.21 251.44 120.91 251.44 120.91 268.28 123.69 268.28 123.69 251.44 130.38 251.44 130.38 248.94 130.38 248.94" fill="#231f20"/><polygon points="135.79 248.94 133.01 248.94 133.01 268.28 135.79 268.28 135.79 248.94 135.79 248.94" fill="#231f20"/><path d="M147.22,265.61a9.89,9.89,0,0,0,10.32,9.93c6.56,0,10.47-4.71,10.47-9.93,0-5.39-4-9.93-10.41-9.93s-10.38,4.57-10.38,9.93Zm2.86,0A7.54,7.54,0,1,1,157.6,273a7.24,7.24,0,0,1-7.52-7.38Z" transform="translate(-8 -7)" fill="#231f20" fill-rule="evenodd"/><polygon points="181.31 248.94 178.7 248.94 178.7 263.92 165.59 248.94 163.38 248.94 163.38 268.28 165.99 268.28 165.99 253.39 178.93 268.28 181.31 268.28 181.31 248.94 181.31 248.94" fill="#231f20"/><path d="M201.69,255.82h-2l-8.31,19.46h2.84l2.44-5.7h8.22l2.59,5.7h2.83l-8.65-19.46Zm-1,4.26,3.12,7h-6l2.89-7Z" transform="translate(-8 -7)" fill="#231f20" fill-rule="evenodd"/><polygon points="207.22 248.94 204.44 248.94 204.44 268.28 215.96 268.28 215.96 265.79 207.22 265.79 207.22 248.94 207.22 248.94" fill="#231f20"/><path d="M233.39,265.61a9.89,9.89,0,0,0,10.33,9.93c6.55,0,10.46-4.71,10.46-9.93,0-5.39-4-9.93-10.41-9.93s-10.38,4.57-10.38,9.93Zm2.87,0a7.53,7.53,0,1,1,7.51,7.38,7.23,7.23,0,0,1-7.51-7.38Z" transform="translate(-8 -7)" fill="#231f20" fill-rule="evenodd"/><path d="M257.64,255.94v19.34h2.78v-8.39h1.16c1.42,0,2.58.45,5.14,4.42l2.55,4h3.32c-1.34-1.84-1.82-2.49-2.64-3.83-1.48-2.41-2.55-4.19-4.31-5.36a4.83,4.83,0,0,0,3.23-4.73c0-3.35-2.44-5.42-6.35-5.42Zm2.78,2.38h1.78c2.7,0,3.78,1.11,3.81,2.92,0,1.62-.83,3.15-3.81,3.15h-1.78v-6.07Z" transform="translate(-8 -7)" fill="#231f20" fill-rule="evenodd"/><polygon points="269.51 248.94 266.73 248.94 266.73 268.28 269.51 268.28 269.51 248.94 269.51 248.94" fill="#231f20"/><polygon points="284.77 248.94 273.8 248.94 273.8 268.28 285.03 268.28 285.03 265.79 276.57 265.79 276.57 259.77 284.49 259.77 284.49 257.28 276.57 257.28 276.57 251.44 284.77 251.44 284.77 248.94 284.77 248.94" fill="#231f20"/><polygon points="305.88 248.94 303.27 248.94 303.27 263.92 290.16 248.94 287.95 248.94 287.95 268.28 290.56 268.28 290.56 253.39 303.5 268.28 305.88 268.28 305.88 248.94 305.88 248.94" fill="#231f20"/><polygon points="324.64 248.94 308.48 248.94 308.48 251.44 315.17 251.44 315.17 268.28 317.95 268.28 317.95 251.44 324.64 251.44 324.64 248.94 324.64 248.94" fill="#231f20"/><polygon points="338.22 248.94 327.24 248.94 327.24 268.28 338.48 268.28 338.48 265.79 330.02 265.79 330.02 259.77 337.94 259.77 337.94 257.28 330.02 257.28 330.02 251.44 338.22 251.44 338.22 248.94 338.22 248.94" fill="#231f20"/><polygon points="352.41 248.94 341.43 248.94 341.43 268.28 352.66 268.28 352.66 265.79 344.21 265.79 344.21 259.77 352.12 259.77 352.12 257.28 344.21 257.28 344.21 251.44 352.41 251.44 352.41 248.94 352.41 248.94" fill="#231f20"/><path d="M363.67,255.94v19.34h2.78v-8.39h1.16c1.42,0,2.58.45,5.14,4.42l2.55,4h3.32c-1.33-1.84-1.82-2.49-2.64-3.83-1.47-2.41-2.55-4.19-4.31-5.36a4.83,4.83,0,0,0,3.23-4.73c0-3.35-2.44-5.42-6.35-5.42Zm2.78,2.38h1.79c2.69,0,3.77,1.11,3.8,2.92,0,1.62-.82,3.15-3.8,3.15h-1.79v-6.07Z" transform="translate(-8 -7)" fill="#231f20" fill-rule="evenodd"/><polygon points="375.54 248.94 372.76 248.94 372.76 268.28 375.54 268.28 375.54 248.94 375.54 248.94" fill="#231f20"/><polygon points="397.73 248.94 395.12 248.94 395.12 263.92 382.01 248.94 379.8 248.94 379.8 268.28 382.41 268.28 382.41 253.39 395.34 268.28 397.73 268.28 397.73 248.94 397.73 248.94" fill="#231f20"/><path d="M426.93,265.75h-6.49v2.5h3.71v4a13.43,13.43,0,0,1-4.2.77c-4.59,0-7.82-3-7.82-7.35a7.31,7.31,0,0,1,7.46-7.4,14.41,14.41,0,0,1,7,1.9v-2.81a15.75,15.75,0,0,0-6.9-1.65,10,10,0,0,0-10.38,10c0,5.68,4.37,9.82,10.3,9.82a16.87,16.87,0,0,0,7.37-1.59v-8.2Z" transform="translate(-8 -7)" fill="#231f20"/><polygon points="441.19 248.94 430.87 248.94 430.87 268.28 433.65 268.28 433.65 259.29 441.19 259.29 441.19 256.8 433.65 256.8 433.65 251.44 441.19 251.44 441.19 248.94 441.19 248.94" fill="#231f20"/><polygon points="455.11 248.94 444.14 248.94 444.14 268.28 455.37 268.28 455.37 265.79 446.92 265.79 446.92 259.77 454.83 259.77 454.83 257.28 446.92 257.28 446.92 251.44 455.11 251.44 455.11 248.94 455.11 248.94" fill="#231f20"/><path d="M466.35,275.28h7.54c6.39,0,10.27-4.7,10.27-9.67,0-4.57-3.15-9.67-10.29-9.67h-7.52v19.34Zm2.78-16.85h4.28c5.42,0,7.89,3.3,7.89,7.18,0,2.38-1.45,7.18-7.75,7.18h-4.42V258.43Z" transform="translate(-8 -7)" fill="#231f20" fill-rule="evenodd"/><polygon points="490.58 248.94 479.6 248.94 479.6 268.28 490.83 268.28 490.83 265.79 482.38 265.79 482.38 259.77 490.29 259.77 490.29 257.28 482.38 257.28 482.38 251.44 490.58 251.44 490.58 248.94 490.58 248.94" fill="#231f20"/><path d="M501.84,255.94v19.34h2.78v-8.39h1.16c1.42,0,2.58.45,5.14,4.42l2.55,4h3.32c-1.33-1.84-1.82-2.49-2.64-3.83-1.47-2.41-2.55-4.19-4.31-5.36a4.83,4.83,0,0,0,3.23-4.73c0-3.35-2.44-5.42-6.35-5.42Zm2.78,2.38h1.79c2.69,0,3.77,1.11,3.8,2.92,0,1.62-.82,3.15-3.8,3.15h-1.79v-6.07Z" transform="translate(-8 -7)" fill="#231f20" fill-rule="evenodd"/><path d="M527.05,255.82h-2l-8.31,19.46h2.83l2.44-5.7h8.23l2.58,5.7h2.84l-8.65-19.46Zm-1,4.26,3.12,7h-6l2.9-7Z" transform="translate(-8 -7)" fill="#231f20" fill-rule="evenodd"/><polygon points="541.51 248.94 525.34 248.94 525.34 251.44 532.03 251.44 532.03 268.28 534.81 268.28 534.81 251.44 541.51 251.44 541.51 248.94 541.51 248.94" fill="#231f20"/><polygon points="546.91 248.94 544.14 248.94 544.14 268.28 546.91 268.28 546.91 248.94 546.91 248.94" fill="#231f20"/><path d="M558.35,265.61a9.89,9.89,0,0,0,10.32,9.93c6.56,0,10.47-4.71,10.47-9.93,0-5.39-4-9.93-10.41-9.93s-10.38,4.57-10.38,9.93Zm2.86,0a7.54,7.54,0,1,1,7.52,7.38,7.24,7.24,0,0,1-7.52-7.38Z" transform="translate(-8 -7)" fill="#231f20" fill-rule="evenodd"/><polygon points="592.44 248.94 589.83 248.94 589.83 263.92 576.72 248.94 574.51 248.94 574.51 268.28 577.12 268.28 577.12 253.39 590.05 268.28 592.44 268.28 592.44 248.94 592.44 248.94" fill="#231f20"/></svg>